<svg xmlns="http://www.w3.org/2000/svg" xmlns:xlink="http://www.w3.org/1999/xlink" viewBox="0 0 300.84 61.27"><defs><style>.cls-1,.cls-48{fill:none;}.cls-2{fill:#a52229;}.cls-3,.cls-49{fill:#fff;}.cls-4{clip-path:url(#clip-path);}.cls-5{fill:url(#未命名的渐变_23);}.cls-6{clip-path:url(#clip-path-2);}.cls-7{fill:url(#未命名的渐变_24);}.cls-8{clip-path:url(#clip-path-3);}.cls-9{fill:url(#未命名的渐变_25);}.cls-10{clip-path:url(#clip-path-4);}.cls-11{fill:url(#未命名的渐变_26);}.cls-12{clip-path:url(#clip-path-5);}.cls-13{fill:url(#未命名的渐变_27);}.cls-14{clip-path:url(#clip-path-6);}.cls-15{fill:url(#未命名的渐变_28);}.cls-16{clip-path:url(#clip-path-7);}.cls-17{fill:url(#未命名的渐变_29);}.cls-18{clip-path:url(#clip-path-8);}.cls-19{fill:url(#未命名的渐变_30);}.cls-20{clip-path:url(#clip-path-9);}.cls-21{fill:url(#未命名的渐变_31);}.cls-22{clip-path:url(#clip-path-10);}.cls-23{fill:url(#未命名的渐变_32);}.cls-24{clip-path:url(#clip-path-11);}.cls-25{fill:url(#未命名的渐变_33);}.cls-26{clip-path:url(#clip-path-12);}.cls-27{fill:url(#未命名的渐变_34);}.cls-28{clip-path:url(#clip-path-13);}.cls-29{fill:url(#未命名的渐变_35);}.cls-30{clip-path:url(#clip-path-14);}.cls-31{fill:url(#未命名的渐变_36);}.cls-32{clip-path:url(#clip-path-15);}.cls-33{fill:url(#未命名的渐变_37);}.cls-34{clip-path:url(#clip-path-16);}.cls-35{fill:url(#未命名的渐变_38);}.cls-36{clip-path:url(#clip-path-17);}.cls-37{fill:url(#未命名的渐变_39);}.cls-38{clip-path:url(#clip-path-18);}.cls-39{fill:url(#未命名的渐变_40);}.cls-40{clip-path:url(#clip-path-19);}.cls-41{fill:url(#未命名的渐变_41);}.cls-42{clip-path:url(#clip-path-20);}.cls-43{fill:url(#未命名的渐变_42);}.cls-44{clip-path:url(#clip-path-21);}.cls-45{fill:url(#未命名的渐变_43);}.cls-46{clip-path:url(#clip-path-22);}.cls-47{fill:url(#未命名的渐变_44);}.cls-48,.cls-49{stroke:#fff;}.cls-48{stroke-linecap:round;stroke-linejoin:round;stroke-width:2.5px;}.cls-49{stroke-miterlimit:10;}</style><clipPath id="clip-path"><polygon class="cls-1" points="21.65 8.75 21.64 8.75 41.29 47.23 45.51 47.16 33.74 8.75 21.65 8.75"/></clipPath><linearGradient id="未命名的渐变_23" x1="580.13" y1="735.9" x2="581.13" y2="735.9" gradientTransform="matrix(0, 36.83, -36.83, 0, 27135.89, -21352.3)" gradientUnits="userSpaceOnUse"><stop offset="0" stop-color="#fff"/><stop offset="0.14" stop-color="#fff"/><stop offset="0.25" stop-color="#fff"/><stop offset="0.33" stop-color="#fdfafa"/><stop offset="0.43" stop-color="#f7eaea"/><stop offset="0.55" stop-color="#edd0d1"/><stop offset="0.67" stop-color="#e0adae"/><stop offset="0.79" stop-color="#ce7f80"/><stop offset="0.92" stop-color="#b9474a"/><stop offset="1" stop-color="#ab2326"/></linearGradient><clipPath id="clip-path-2"><polygon class="cls-1" points="21.5 8.75 21.5 8.75 40.74 47.23 44.97 47.15 33.07 8.75 21.5 8.75"/></clipPath><linearGradient id="未命名的渐变_24" x1="582.86" y1="734.72" x2="583.86" y2="734.72" gradientTransform="translate(29708.14 -23533.81) rotate(90) scale(40.39)" gradientUnits="userSpaceOnUse"><stop offset="0" stop-color="#fdf8f5"/><stop offset="0.14" stop-color="#fdf8f5"/><stop offset="0.25" stop-color="#fbf8f5"/><stop offset="0.33" stop-color="#f9f2f0"/><stop offset="0.44" stop-color="#f3e2e0"/><stop offset="0.55" stop-color="#e9c8c6"/><stop offset="0.68" stop-color="#dba3a2"/><stop offset="0.81" stop-color="#c97474"/><stop offset="0.95" stop-color="#b43b3d"/><stop offset="1" stop-color="#ab2326"/></linearGradient><clipPath id="clip-path-3"><polygon class="cls-1" points="21.35 8.75 21.35 8.75 40.2 47.22 44.43 47.14 32.4 8.75 21.35 8.75"/></clipPath><linearGradient id="未命名的渐变_25" x1="583.52" y1="736.96" x2="584.52" y2="736.96" gradientTransform="matrix(0, 37.94, -37.94, 0, 27993.47, -22130.72)" gradientUnits="userSpaceOnUse"><stop offset="0" stop-color="#f7eee8"/><stop offset="0.14" stop-color="#f8eee7"/><stop offset="0.25" stop-color="#f7ece6"/><stop offset="0.34" stop-color="#f5e6e1"/><stop offset="0.44" stop-color="#efd6d1"/><stop offset="0.56" stop-color="#e4bbb7"/><stop offset="0.7" stop-color="#d69693"/><stop offset="0.84" stop-color="#c36665"/><stop offset="0.98" stop-color="#ad2c2d"/><stop offset="1" stop-color="#aa2426"/></linearGradient><clipPath id="clip-path-4"><polygon class="cls-1" points="21.21 8.75 21.21 8.75 39.65 47.22 43.88 47.13 31.74 8.75 21.21 8.75"/></clipPath><linearGradient id="未命名的渐变_26" x1="584.31" y1="739.42" x2="585.31" y2="739.42" gradientTransform="translate(26256.4 -20713.75) rotate(90) scale(35.47)" gradientUnits="userSpaceOnUse"><stop offset="0" stop-color="#f5e5db"/><stop offset="0.14" stop-color="#f4e4da"/><stop offset="0.25" stop-color="#f2e3da"/><stop offset="0.34" stop-color="#f0ddd5"/><stop offset="0.45" stop-color="#eacdc5"/><stop offset="0.57" stop-color="#e0b2ac"/><stop offset="0.71" stop-color="#d18d89"/><stop offset="0.85" stop-color="#bf5c5b"/><stop offset="1" stop-color="#aa2426"/></linearGradient><clipPath id="clip-path-5"><polygon class="cls-1" points="21.11 8.75 21.07 8.75 39.1 47.21 43.34 47.12 31.07 8.75 21.11 8.75"/></clipPath><linearGradient id="未命名的渐变_27" x1="585.28" y1="742.12" x2="586.28" y2="742.12" gradientTransform="translate(24532.76 -19312.66) rotate(90) scale(33.01)" gradientUnits="userSpaceOnUse"><stop offset="0" stop-color="#eed9ce"/><stop offset="0.14" stop-color="#eed9ce"/><stop offset="0.25" stop-color="#eed9ce"/><stop offset="0.34" stop-color="#ecd3c9"/><stop offset="0.46" stop-color="#e6c3ba"/><stop offset="0.58" stop-color="#dca9a1"/><stop offset="0.72" stop-color="#ce847f"/><stop offset="0.87" stop-color="#bc5553"/><stop offset="1" stop-color="#aa2426"/></linearGradient><clipPath id="clip-path-6"><polygon class="cls-1" points="20.92 8.75 38.55 47.21 42.8 47.11 30.4 8.75 20.92 8.75"/></clipPath><linearGradient id="未命名的渐变_28" x1="586.67" y1="744.54" x2="587.67" y2="744.54" gradientTransform="translate(18321.64 23216.66) rotate(180) scale(31.15)" gradientUnits="userSpaceOnUse"><stop offset="0" stop-color="#ebd1c2"/><stop offset="0.14" stop-color="#ebd1c2"/><stop offset="0.25" stop-color="#ebcfc0"/><stop offset="0.34" stop-color="#e9c9bb"/><stop offset="0.46" stop-color="#e3b9ac"/><stop offset="0.6" stop-color="#d89e94"/><stop offset="0.74" stop-color="#ca7872"/><stop offset="0.9" stop-color="#b84947"/><stop offset="1" stop-color="#aa2426"/></linearGradient><clipPath id="clip-path-7"><polygon class="cls-1" points="20.78 8.75 20.78 8.75 38 47.21 42.25 47.09 29.73 8.75 20.78 8.75"/></clipPath><linearGradient id="未命名的渐变_29" x1="588.23" y1="747.09" x2="589.23" y2="747.09" gradientTransform="translate(17281.5 21914.17) rotate(180) scale(29.3)" gradientUnits="userSpaceOnUse"><stop offset="0" stop-color="#e6c7b7"/><stop offset="0.14" stop-color="#e6c7b5"/><stop offset="0.25" stop-color="#e6c6b4"/><stop offset="0.35" stop-color="#e4c0af"/><stop offset="0.47" stop-color="#deb0a1"/><stop offset="0.61" stop-color="#d4968a"/><stop offset="0.76" stop-color="#c67069"/><stop offset="0.91" stop-color="#b54140"/><stop offset="1" stop-color="#aa2427"/></linearGradient><clipPath id="clip-path-8"><polygon class="cls-1" points="20.63 8.75 37.45 47.2 41.71 47.08 29.06 8.75 20.63 8.75"/></clipPath><linearGradient id="未命名的渐变_30" x1="590.02" y1="749.94" x2="591.02" y2="749.94" gradientTransform="translate(16198.2 20555.15) rotate(180) scale(27.37)" gradientUnits="userSpaceOnUse"><stop offset="0" stop-color="#e2bfac"/><stop offset="0.14" stop-color="#e2bca9"/><stop offset="0.25" stop-color="#e0bba8"/><stop offset="0.35" stop-color="#deb6a3"/><stop offset="0.48" stop-color="#d9a696"/><stop offset="0.62" stop-color="#cf8c80"/><stop offset="0.77" stop-color="#c36962"/><stop offset="0.93" stop-color="#b23b3c"/><stop offset="1" stop-color="#aa2428"/></linearGradient><clipPath id="clip-path-9"><polygon class="cls-1" points="20.49 8.75 20.49 8.75 36.9 47.2 41.17 47.07 28.39 8.75 20.49 8.75"/></clipPath><linearGradient id="未命名的渐变_31" x1="592.1" y1="753.15" x2="593.1" y2="753.15" gradientTransform="translate(15082.91 19153.24) rotate(180) scale(25.39)" gradientUnits="userSpaceOnUse"><stop offset="0" stop-color="#dfb59e"/><stop offset="0.14" stop-color="#ddb39e"/><stop offset="0.25" stop-color="#ddb09b"/><stop offset="0.36" stop-color="#dbaa96"/><stop offset="0.49" stop-color="#d59a89"/><stop offset="0.64" stop-color="#cb7f73"/><stop offset="0.8" stop-color="#bd5a55"/><stop offset="0.98" stop-color="#ac2b2e"/><stop offset="1" stop-color="#a92428"/></linearGradient><clipPath id="clip-path-10"><polygon class="cls-1" points="20.34 8.75 20.34 8.75 36.35 47.19 40.63 47.06 27.72 8.75 20.34 8.75"/></clipPath><linearGradient id="未命名的渐变_32" x1="594.53" y1="756.79" x2="595.53" y2="756.79" gradientTransform="translate(13946.73 17721.95) rotate(180) scale(23.38)" gradientUnits="userSpaceOnUse"><stop offset="0" stop-color="#daab94"/><stop offset="0.14" stop-color="#daaa93"/><stop offset="0.24" stop-color="#d9a891"/><stop offset="0.25" stop-color="#d8a690"/><stop offset="0.36" stop-color="#d6a18c"/><stop offset="0.5" stop-color="#d0917f"/><stop offset="0.66" stop-color="#c7776b"/><stop offset="0.82" stop-color="#ba544e"/><stop offset="0.99" stop-color="#aa262a"/><stop offset="1" stop-color="#a92428"/></linearGradient><clipPath id="clip-path-11"><polygon class="cls-1" points="20.2 8.75 35.8 47.19 40.08 47.05 27.05 8.75 20.2 8.75"/></clipPath><linearGradient id="未命名的渐变_33" x1="597.44" y1="760.97" x2="598.44" y2="760.97" gradientTransform="translate(12800.7 16274.78) rotate(180) scale(21.35)" gradientUnits="userSpaceOnUse"><stop offset="0" stop-color="#d5a188"/><stop offset="0.14" stop-color="#d4a087"/><stop offset="0.25" stop-color="#d49f86"/><stop offset="0.37" stop-color="#d29a82"/><stop offset="0.51" stop-color="#cd8b76"/><stop offset="0.67" stop-color="#c47163"/><stop offset="0.83" stop-color="#b84e48"/><stop offset="1" stop-color="#a92428"/></linearGradient><clipPath id="clip-path-12"><polygon class="cls-1" points="20.05 8.75 20.05 8.75 35.25 47.19 39.54 47.04 26.39 8.75 20.05 8.75"/></clipPath><linearGradient id="未命名的渐变_34" x1="600.95" y1="765.81" x2="601.95" y2="765.81" gradientTransform="translate(11655.7 14825.05) rotate(180) scale(19.32)" gradientUnits="userSpaceOnUse"><stop offset="0" stop-color="#d39a7f"/><stop offset="0.12" stop-color="#d2987d"/><stop offset="0.14" stop-color="#d2967c"/><stop offset="0.25" stop-color="#d2967c"/><stop offset="0.37" stop-color="#d09178"/><stop offset="0.52" stop-color="#cb826d"/><stop offset="0.68" stop-color="#c2685b"/><stop offset="0.85" stop-color="#b64642"/><stop offset="1" stop-color="#a92128"/></linearGradient><clipPath id="clip-path-13"><polygon class="cls-1" points="19.91 8.75 34.7 47.18 39 47.03 25.72 8.75 19.91 8.75"/></clipPath><linearGradient id="未命名的渐变_35" x1="605.25" y1="771.49" x2="606.25" y2="771.49" gradientTransform="translate(10522.33 13385.74) rotate(180) scale(17.31)" gradientUnits="userSpaceOnUse"><stop offset="0" stop-color="#cf9174"/><stop offset="0.14" stop-color="#cd8d72"/><stop offset="0.25" stop-color="#cc8b70"/><stop offset="0.38" stop-color="#ca866c"/><stop offset="0.53" stop-color="#c57662"/><stop offset="0.71" stop-color="#bd5d51"/><stop offset="0.89" stop-color="#b13a39"/><stop offset="1" stop-color="#a92128"/></linearGradient><clipPath id="clip-path-14"><path class="cls-1" d="M20,8.75h-.24L34.15,47.18l4.3-.16L25.05,8.75H20"/></clipPath><linearGradient id="未命名的渐变_36" x1="610.71" y1="778.2" x2="611.71" y2="778.2" gradientTransform="translate(9412.71 11969.18) rotate(180) scale(15.34)" gradientUnits="userSpaceOnUse"><stop offset="0" stop-color="#cc876a"/><stop offset="0.14" stop-color="#cb8569"/><stop offset="0.25" stop-color="#c88267"/><stop offset="0.39" stop-color="#c67d64"/><stop offset="0.55" stop-color="#c16d5a"/><stop offset="0.73" stop-color="#b85449"/><stop offset="0.93" stop-color="#ac3132"/><stop offset="1" stop-color="#a72228"/></linearGradient><clipPath id="clip-path-15"><path class="cls-1" d="M20.16,8.75h-.54l14,38.42L37.91,47,24.38,8.75Z"/></clipPath><linearGradient id="未命名的渐变_37" x1="617.49" y1="786.31" x2="618.49" y2="786.31" gradientTransform="translate(8333.17 10588.25) rotate(180) scale(13.43)" gradientUnits="userSpaceOnUse"><stop offset="0" stop-color="#c87f61"/><stop offset="0.14" stop-color="#c77c5f"/><stop offset="0.25" stop-color="#c6795e"/><stop offset="0.4" stop-color="#c4745b"/><stop offset="0.57" stop-color="#bf6552"/><stop offset="0.76" stop-color="#b64d43"/><stop offset="0.95" stop-color="#aa2b2e"/><stop offset="1" stop-color="#a72228"/></linearGradient><clipPath id="clip-path-16"><path class="cls-1" d="M20.16,8.75h-.68L33.05,47.17,37.37,47,23.71,8.75Z"/></clipPath><linearGradient id="未命名的渐变_38" x1="626.23" y1="796.26" x2="627.23" y2="796.26" gradientTransform="matrix(-11.59, 0, 0, -11.59, 7295.02, 9254.37)" gradientUnits="userSpaceOnUse"><stop offset="0" stop-color="#c37657"/><stop offset="0.14" stop-color="#c27255"/><stop offset="0.25" stop-color="#c16f55"/><stop offset="0.41" stop-color="#bf6a52"/><stop offset="0.59" stop-color="#ba5b4a"/><stop offset="0.79" stop-color="#b2433b"/><stop offset="1" stop-color="#a72228"/></linearGradient><clipPath id="clip-path-17"><path class="cls-1" d="M20.16,8.75h-.83L32.5,47.17,36.82,47,23,8.75Z"/></clipPath><linearGradient id="未命名的渐变_39" x1="637.77" y1="808.73" x2="638.77" y2="808.73" gradientTransform="translate(6307.24 7978.68) rotate(180) scale(9.83)" gradientUnits="userSpaceOnUse"><stop offset="0" stop-color="#c16d50"/><stop offset="0.14" stop-color="#bf694e"/><stop offset="0.25" stop-color="#bf674b"/><stop offset="0.42" stop-color="#bd6248"/><stop offset="0.61" stop-color="#b85441"/><stop offset="0.82" stop-color="#b03c35"/><stop offset="1" stop-color="#a72228"/></linearGradient><clipPath id="clip-path-18"><path class="cls-1" d="M20.16,8.75h-1L32,47.16,36.28,47,22.37,8.75Z"/></clipPath><linearGradient id="未命名的渐变_40" x1="653.4" y1="824.75" x2="654.4" y2="824.75" gradientTransform="translate(5378.27 6771.61) rotate(180) scale(8.18)" gradientUnits="userSpaceOnUse"><stop offset="0" stop-color="#bf6347"/><stop offset="0.14" stop-color="#bd6044"/><stop offset="0.25" stop-color="#bc5f44"/><stop offset="0.43" stop-color="#ba5a42"/><stop offset="0.64" stop-color="#b54c3b"/><stop offset="0.86" stop-color="#ad3430"/><stop offset="1" stop-color="#a72228"/></linearGradient><clipPath id="clip-path-19"><path class="cls-1" d="M20.16,8.75c-.21,0-.6,0-1.11,0L31.41,47.16l4.33-.2L21.7,8.75Z"/></clipPath><linearGradient id="未命名的渐变_41" x1="675.28" y1="846" x2="676.28" y2="846" gradientTransform="translate(4515.9 5642.89) rotate(180) scale(6.64)" gradientUnits="userSpaceOnUse"><stop offset="0" stop-color="#ba5a40"/><stop offset="0.14" stop-color="#b9593e"/><stop offset="0.25" stop-color="#b8553e"/><stop offset="0.45" stop-color="#b6503c"/><stop offset="0.68" stop-color="#b24336"/><stop offset="0.91" stop-color="#ab2d2d"/><stop offset="1" stop-color="#a72228"/></linearGradient><clipPath id="clip-path-20"><path class="cls-1" d="M20.16,8.75c-.23,0-.67,0-1.26,0l12,38.38,4.33-.2L21,8.75Z"/></clipPath><linearGradient id="未命名的渐变_42" x1="707.18" y1="875.33" x2="708.18" y2="875.33" gradientTransform="translate(3727.28 4601.44) rotate(180) scale(5.22)" gradientUnits="userSpaceOnUse"><stop offset="0" stop-color="#b75239"/><stop offset="0.14" stop-color="#b65038"/><stop offset="0.25" stop-color="#b44c36"/><stop offset="0.47" stop-color="#b24735"/><stop offset="0.73" stop-color="#ad3930"/><stop offset="1" stop-color="#a52229"/><stop offset="1" stop-color="#a52229"/></linearGradient><clipPath id="clip-path-21"><path class="cls-1" d="M20.16,8.75c-.25,0-.75,0-1.4,0L30.31,47.15l4.34-.21L20.37,8.75Z"/></clipPath><linearGradient id="未命名的渐变_43" x1="756.28" y1="918.07" x2="757.28" y2="918.07" gradientTransform="translate(3018.82 3655.28) rotate(180) scale(3.95)" gradientUnits="userSpaceOnUse"><stop offset="0" stop-color="#b44a34"/><stop offset="0.14" stop-color="#b34532"/><stop offset="0.25" stop-color="#b34331"/><stop offset="0.5" stop-color="#b13e30"/><stop offset="0.79" stop-color="#ab312d"/><stop offset="1" stop-color="#a52229"/></linearGradient><clipPath id="clip-path-22"><path class="cls-1" d="M18.73,8.78h-.11L29.76,47.15l4.35-.22L19.7,8.75l-1,0"/></clipPath><linearGradient id="未命名的渐变_44" x1="837.78" y1="985.2" x2="838.78" y2="985.2" gradientTransform="translate(2396.17 2811.62) rotate(180) scale(2.83)" gradientUnits="userSpaceOnUse"><stop offset="0" stop-color="#b1412e"/><stop offset="0.74" stop-color="#a82b2a"/><stop offset="1" stop-color="#a52229"/></linearGradient></defs><title>思格logo-白色-12</title><g id="图层_2" data-name="图层 2"><g id="图层_1-2" data-name="图层 1"><path class="cls-2" d="M64.18,54V10.64a1.71,1.71,0,0,0-2-1.89H58.49a90.17,90.17,0,0,1-24.2-3.91.4.4,0,0,0-.34,0c-.25.15-.64.43-.89.62a.42.42,0,0,0-.15.46l.83,2.79H20.21c-.23,0-.77,0-1.5,0-2.49.08-7,1-7,8.16V59.38a1.85,1.85,0,0,0,1.8,1.89H56c8.49,0,8.18-6.22,8.18-7.26"/><path class="cls-3" d="M47.05,50.9H42.86a1.54,1.54,0,0,1-1.54-1.54v-.64a1.54,1.54,0,0,1,1.54-1.54h5.72v2.18a1.53,1.53,0,0,1-1.53,1.54"/><g class="cls-4"><rect class="cls-5" x="17.02" y="6.29" width="33.12" height="43.39" transform="translate(-6.16 9.78) rotate(-15.2)"/></g><g class="cls-6"><rect class="cls-7" x="17.87" y="6.78" width="30.73" height="42.41" transform="translate(-4.95 7.25) rotate(-11.6)"/></g><g class="cls-8"><rect class="cls-9" x="18.79" y="7.33" width="28.2" height="41.31" transform="translate(-3.57 4.85) rotate(-8)"/></g><g class="cls-10"><rect class="cls-11" x="19.77" y="7.94" width="25.56" height="40.09" transform="translate(-2.05 2.58) rotate(-4.4)"/></g><g class="cls-12"><rect class="cls-13" x="20.8" y="8.59" width="22.81" height="38.77" transform="translate(-0.39 0.45) rotate(-0.8)"/></g><g class="cls-14"><rect class="cls-15" x="12.1" y="16.08" width="39.52" height="23.8" transform="translate(2.3 58.38) rotate(-87.1)"/></g><g class="cls-16"><rect class="cls-17" x="11.19" y="15.13" width="40.64" height="25.69" transform="translate(0.15 56.12) rotate(-83.5)"/></g><g class="cls-18"><rect class="cls-19" x="10.39" y="14.23" width="41.55" height="27.5" transform="translate(-1.84 53.76) rotate(-79.9)"/></g><g class="cls-20"><rect class="cls-21" x="9.7" y="13.37" width="42.25" height="29.2" transform="translate(-3.65 51.3) rotate(-76.3)"/></g><g class="cls-22"><rect class="cls-23" x="9.12" y="12.57" width="42.74" height="30.8" transform="translate(-5.29 48.76) rotate(-72.7)"/></g><g class="cls-24"><rect class="cls-25" x="8.64" y="11.83" width="43.01" height="32.29" transform="translate(-6.74 46.15) rotate(-69.1)"/></g><g class="cls-26"><rect class="cls-27" x="8.27" y="11.13" width="43.06" height="33.67" transform="translate(-8.01 43.48) rotate(-65.5)"/></g><g class="cls-28"><rect class="cls-29" x="8.01" y="10.5" width="42.89" height="34.94" transform="translate(-9.09 40.77) rotate(-61.9)"/></g><g class="cls-30"><rect class="cls-31" x="7.85" y="9.9" width="42.51" height="36.13" transform="translate(-9.99 37.97) rotate(-58.2)"/></g><g class="cls-32"><rect class="cls-33" x="7.81" y="9.38" width="41.92" height="37.17" transform="translate(-10.69 35.21) rotate(-54.6)"/></g><g class="cls-34"><rect class="cls-35" x="7.86" y="8.92" width="41.12" height="38.08" transform="translate(-11.19 32.45) rotate(-51)"/></g><g class="cls-36"><rect class="cls-37" x="8.02" y="8.52" width="40.12" height="38.88" transform="translate(-11.51 29.7) rotate(-47.4)"/></g><g class="cls-38"><rect class="cls-39" x="8.27" y="8.18" width="38.92" height="39.56" transform="translate(-11.63 26.98) rotate(-43.8)"/></g><g class="cls-40"><rect class="cls-41" x="8.62" y="7.9" width="37.54" height="40.11" transform="translate(-11.57 24.28) rotate(-40.2)"/></g><g class="cls-42"><rect class="cls-43" x="9.06" y="7.68" width="35.98" height="40.55" transform="translate(-11.33 21.64) rotate(-36.6)"/></g><g class="cls-44"><rect class="cls-45" x="9.58" y="7.52" width="34.24" height="40.86" transform="matrix(0.84, -0.54, 0.54, 0.84, -10.91, 19.05)"/></g><g class="cls-46"><rect class="cls-47" x="10.19" y="7.42" width="32.34" height="41.05" transform="translate(-10.33 16.54) rotate(-29.4)"/></g><path class="cls-48" d="M136.63,52.33c-1.64,1.62-5.4,2.72-9.11,2.72s-7.39-1.07-9.06-2.66m154.1-.06c-1.65,1.62-5.4,2.72-9.12,2.72s-7.38-1.07-9.05-2.66m14.69-5.7H257.81a4.13,4.13,0,0,1-4.13-4.13V40.82a4.12,4.12,0,0,1,4.13-4.12h15.4v5.86A4.13,4.13,0,0,1,269.08,46.69Zm-136.18,0H121.62a4.13,4.13,0,0,1-4.12-4.13V40.82a4.12,4.12,0,0,1,4.12-4.12H137v5.86A4.13,4.13,0,0,1,132.9,46.69Zm157.25-1.41v4.9m-44.52,0-8.49-2a2.32,2.32,0,0,1-1.24-2.35c0-1.31.66-2.37,1.49-2.37h6.12c1.17,0,2.12-1.52,2.12-3.39s-.95-3.38-2.12-3.38h-17V50.18m-54.15,0V38.53c0-1.4,1-2.28,1.87-1.58l15.33,13c.83.7,1.86-.17,1.86-1.58V36.75M203,43.41h13m2.44,6.77H203.23c-2.34,0-4.24-3-4.24-6.77s1.9-6.77,4.24-6.77h15.29M148,43.41h13m2.44,6.77H148.17c-2.34,0-4.24-3-4.24-6.77s1.9-6.77,4.24-6.77h15.29m-54.07,0V50.18M83,50.18H99.81c1.18,0,2.15-1.52,2.15-3.4s-1-3.39-2.15-3.39l-14.69,0C83.93,43.43,83,41.91,83,40s1-3.39,2.16-3.39H102"/><path class="cls-49" d="M137.12,33H131.8a.84.84,0,0,1-.84-.83v-.9a.84.84,0,0,1,.84-.83H138v1.73a.83.83,0,0,1-.84.83"/><path class="cls-49" d="M273.48,33h-5.33a.83.83,0,0,1-.83-.83v-.9a.83.83,0,0,1,.83-.83h6.16v1.73a.83.83,0,0,1-.83.83"/><path class="cls-48" d="M299.59,36.27l-3.41,2.58a10,10,0,0,1-12.06,0l-3.41-2.58"/></g></g></svg>